<svg xmlns="http://www.w3.org/2000/svg" shape-rendering="geometricPrecision" text-rendering="geometricPrecision" image-rendering="optimizeQuality" fill-rule="evenodd" clip-rule="evenodd" viewBox="0 0 512 487.892"><path d="M401.057 302.516v36.54h36.539c2.998 0 5.449 2.479 5.449 5.443v27.004c0 2.964-2.48 5.443-5.449 5.443h-36.539v36.54c0 2.969-2.48 5.448-5.443 5.448h-27.005c-2.964 0-5.442-2.445-5.442-5.448v-36.54h-36.546c-2.963 0-5.443-2.445-5.443-5.443v-27.004c0-2.998 2.451-5.443 5.443-5.443h36.546v-36.54a5.453 5.453 0 015.442-5.443h27.005c2.998 0 5.443 2.508 5.443 5.443zm-110.788-36.355c25.364-25.363 58.606-38.046 91.844-38.046 33.237 0 66.48 12.683 91.841 38.046C499.317 291.522 512 324.765 512 358.002c0 33.238-12.683 66.48-38.046 91.844-25.361 25.36-58.604 38.046-91.841 38.046-33.238 0-66.48-12.686-91.844-38.046-25.36-25.364-38.046-58.606-38.046-91.844 0-33.237 12.686-66.48 38.046-91.841zm10.268 10.268c45.053-45.053 118.096-45.053 163.149 0s45.053 118.096 0 163.149-118.096 45.053-163.149 0-45.053-118.096 0-163.149zM442.69 139.716v75.173a154.625 154.625 0 00-12.42-4.636v-70.537H12.42v253.489c0 16.761 13.723 30.492 30.492 30.492h198.374a155.369 155.369 0 006.502 12.42H38.771C17.489 436.117 0 418.628 0 397.344l.003-257.628V58.967c0-21.299 17.469-38.768 38.768-38.768h53.652v61.809c0 50.471 83.349 50.449 83.349 0V20.199h91.146v61.809c0 50.468 83.349 50.457 83.349 0V20.199h53.647c21.298 0 38.773 17.469 38.773 38.773l.003 80.744zM81.244 296.953h51.536c3.104 0 5.64 2.622 5.64 5.638v48.014c0 3.017-2.621 5.635-5.64 5.635H81.244c-3.019 0-5.64-2.536-5.64-5.635v-48.014c0-3.099 2.536-5.638 5.64-5.638zm228.674-109.466h51.528c3.104 0 5.643 2.585 5.643 5.634v10.238a154.435 154.435 0 00-62.814 20.156v-30.394c0-3.098 2.539-5.634 5.643-5.634zm-114.484 0h52.983c3.104 0 5.64 2.615 5.64 5.634v48.018c0 3.019-2.616 5.634-5.64 5.634h-52.983c-3.024 0-5.64-2.536-5.64-5.634v-48.018c0-3.098 2.536-5.634 5.64-5.634zm-114.19 0h51.536c3.104 0 5.64 2.615 5.64 5.634v48.018c0 3.019-2.616 5.634-5.64 5.634H81.244c-3.024 0-5.64-2.536-5.64-5.634v-48.018c0-3.098 2.536-5.634 5.64-5.634zm114.19 109.466h43.769c-7.801 18.23-12.206 38.258-12.439 59.287h-31.33c-3.021 0-5.64-2.536-5.64-5.635v-48.014c0-3.099 2.536-5.638 5.64-5.638zM289.87 15.348C289.87 6.882 298.243 0 308.591 0c10.353 0 18.726 6.882 18.726 15.348v64.127c0 8.466-8.373 15.348-18.726 15.348-10.348 0-18.721-6.882-18.721-15.348V15.348zm-174.495 0C115.375 6.882 123.748 0 134.096 0c10.352 0 18.726 6.882 18.726 15.348v64.127c0 8.466-8.374 15.348-18.726 15.348-10.348 0-18.721-6.882-18.721-15.348V15.348z"/></svg>