<svg xmlns="http://www.w3.org/2000/svg" shape-rendering="geometricPrecision" text-rendering="geometricPrecision" image-rendering="optimizeQuality" fill-rule="evenodd" clip-rule="evenodd" viewBox="0 0 415 512.168"><path d="M25.028 47.34h60.008l-2.608 24.38H42.072c-11.301 0-21.126 9.833-21.126 21.121v354.364c0 11.23 9.52 21.133 21.126 21.133h182.75a112.575 112.575 0 0011.365 21.385H25.028C11.354 489.723 0 478.475 0 464.696V72.367C0 58.6 11.26 47.34 25.028 47.34zm304.388 293.661c47.283 0 85.584 38.325 85.584 85.584 0 47.282-38.326 85.583-85.584 85.583-47.282 0-85.584-38.326-85.584-85.583 0-47.285 38.326-85.584 85.584-85.584zm-36.299 69.26c-3.016-2.971-5.435-4.833-1.663-8.495l12.176-11.887c3.859-3.905 6.122-3.705 9.714-.023l16.413 16.412 16.312-16.312c2.971-3.016 4.834-5.435 8.494-1.663l11.887 12.176c3.905 3.86 3.706 6.123.023 9.715l-16.4 16.401 16.4 16.4c3.683 3.593 3.882 5.856-.023 9.715l-11.887 12.176c-3.66 3.772-5.523 1.354-8.494-1.662l-16.312-16.313-16.413 16.413c-3.592 3.681-5.855 3.881-9.714-.024l-12.176-11.887c-3.772-3.661-1.353-5.523 1.663-8.495l16.324-16.323-16.324-16.324zM113.222 198.479h-38.9v-60.783h19.453v45.226h19.447v15.557zm5.351-30.341c0-11.089 2.079-19.177 6.225-24.269 4.153-5.087 11.641-7.635 22.466-7.635 10.831 0 18.319 2.548 22.472 7.635 4.146 5.092 6.219 13.18 6.219 24.269 0 5.509-.435 10.143-1.31 13.908-.88 3.758-2.384 7.036-4.522 9.821-2.144 2.789-5.092 4.833-8.857 6.124-3.758 1.299-8.422 1.951-14.002 1.951-5.574 0-10.244-.652-14.002-1.951-3.765-1.291-6.713-3.335-8.852-6.124-2.137-2.785-3.647-6.063-4.523-9.821-.874-3.765-1.314-8.399-1.314-13.908zm20.914-10.114v25.285h8.071c2.654 0 4.587-.312 5.785-.928 1.204-.611 1.797-2.027 1.797-4.229v-25.285h-8.17c-2.59 0-4.488.312-5.686.922-1.198.617-1.797 2.027-1.797 4.235zm60.69 40.455h-20.521l15.752-60.783h30.054l15.758 60.783h-20.522l-2.237-9.627h-16.052l-2.232 9.627zm7.641-43.416l-3.207 19.629h11.553l-3.106-19.629h-5.24zm75.708 43.416l-14.883-21.59c-.517-.71-.845-2.267-.975-4.669h-.388v26.259h-19.452v-60.783h18.289l14.878 21.591c.516.71.84 2.267.969 4.669h.393v-26.26h19.453v60.783h-18.284zM74.98 260.884c-4.851 0-8.793-3.941-8.793-8.792 0-4.852 3.942-8.793 8.793-8.793h226.161c4.851 0 8.792 3.941 8.792 8.793 0 4.851-3.941 8.792-8.792 8.792H74.98zm280.137 56.067V92.841c0-11.594-9.826-21.121-21.126-21.121h-42.9V47.34h60.008c13.768 0 25.021 11.377 25.021 25.027v251.78a111.339 111.339 0 00-21.003-7.196zM74.98 420.358c-4.851 0-8.793-3.941-8.793-8.792 0-4.852 3.942-8.793 8.793-8.793h144.368a111.987 111.987 0 00-2.356 17.585H74.98zm0-53.16c-4.851 0-8.793-3.941-8.793-8.793 0-4.851 3.942-8.792 8.793-8.792h172.266a113.164 113.164 0 00-13.497 17.585H74.98zm0-53.154c-4.851 0-8.793-3.94-8.793-8.793 0-4.851 3.942-8.791 8.793-8.791h179.144c4.851 0 8.793 3.94 8.793 8.791 0 4.853-3.942 8.793-8.793 8.793H74.98zm44.714-279.09h28.363C150.447 15.243 166.358 0 185.652 0c19.159 0 34.987 15.037 37.549 34.542l33.196.412a4.165 4.165 0 014.176 4.169v44.82a4.163 4.163 0 01-4.176 4.169H119.729c-2.267 0-4.169-1.86-4.169-4.169v-44.82c-.042-2.307 1.82-4.169 4.134-4.169zm50.424 17.138c2.56 3.512 6.231 6.983 10.125 8.762 3.171.953 6.642 1.04 9.861.16 5.046-2.309 9.674-7.883 11.817-12.552.247-1.321.423-2.684.423-4.176 0-9.873-7.564-17.884-16.904-17.884-9.332 0-16.903 8.011-16.903 17.884.053 2.972.588 5.614 1.581 7.806z"/></svg>